# xmcd CD database file
#
# Track frame offsets:
#	150
#	17640
#	29548
#	51289
#	68569
#	85429
#	100516
#	117689
#	134243
#	150849
#	162235
#	178078
#	196464
#	208075
#	225002
#	237541
#	249820
#	262690
#
# Disc length: 3719 seconds
#
# Revision: 2
# Processed by: cddbd v1.5.2PL0 Copyright (c) Steve Scherf et al.
# Submitted via: CDex 1.51
#
DISCID=eb0e8512
DTITLE=F.R. - Vorsicht Stufe
DYEAR=2008
DGENRE=Rap
TTITLE0=Jag das Gelände hoch
TTITLE1=Rap braucht Abitur
TTITLE2=Prison
TTITLE3=Melodie des Lebens
TTITLE4=Erwachsen werden
TTITLE5=Rap ist mein Fetisch
TTITLE6=Geister und Dämonen feat. Olli Banjo
TTITLE7=Kopf gegen Herz
TTITLE8=Seelenfrieden
TTITLE9=Gerne so wie ich
TTITLE10=Verlorene Seelen
TTITLE11=Phantom der Poser feat. Ercandize and DJ CSP
TTITLE12=Das F und das R
TTITLE13=Grenzenlos
TTITLE14=Nie gesehen
TTITLE15=Stillstand
TTITLE16=Flucht zu Dir
TTITLE17=Alles was ich habe
EXTD=Nach dem F kommt das R !!! YEAR: 2008
EXTT0=
EXTT1=
EXTT2=
EXTT3=
EXTT4=
EXTT5=
EXTT6=
EXTT7=
EXTT8=
EXTT9=
EXTT10=
EXTT11=
EXTT12=
EXTT13=
EXTT14=
EXTT15=
EXTT16=
EXTT17=
PLAYORDER=
